<svg xmlns="http://www.w3.org/2000/svg" version="1.1" xmlns:xlink="http://www.w3.org/1999/xlink" xmlns:svgjs="http://svgjs.dev/svgjs" width="1000" height="351" viewBox="0 0 1000 351"><g transform="matrix(1,0,0,1,-0.6060606060606233,-0.08852624486510763)"><svg viewBox="0 0 396 139" data-background-color="#ffffff" preserveAspectRatio="xMidYMid meet" height="351" width="1000" xmlns="http://www.w3.org/2000/svg" xmlns:xlink="http://www.w3.org/1999/xlink"><g id="tight-bounds" transform="matrix(1,0,0,1,0.2400000000000091,0.035057401812679245)"><svg viewBox="0 0 395.52 138.92988519637464" height="138.92988519637464" width="395.52"><g><svg viewBox="0 0 395.52 138.92988519637464" height="138.92988519637464" width="395.52"><g><svg viewBox="0 0 395.52 138.92988519637464" height="138.92988519637464" width="395.52"><g id="textblocktransform"><svg viewBox="0 0 395.52 138.92988519637464" height="138.92988519637464" width="395.52" id="textblock"><g><svg viewBox="0 0 395.52 138.92988519637464" height="138.92988519637464" width="395.52"><g transform="matrix(1,0,0,1,0,0)"><svg width="395.52" viewBox="-0.2499999999999991 -35.300000000000004 248.25 79.2" height="138.92988519637464" data-palette-color="#000000"><svg></svg><svg></svg><g class="wordmark-text-0" data-fill-palette-color="primary" id="text-0"><path d="M9.4 5.3c-2 0-3.84-0.433-5.52-1.3-1.687-0.867-3.063-2.1-4.13-3.7v0l2.1-2.5c0.967 1.4 2.083 2.467 3.35 3.2 1.267 0.733 2.65 1.1 4.15 1.1v0c4.367 0 6.55-2.567 6.55-7.7v0-26.2h-12.8v-3.2h16.45v29.25c0 3.667-0.857 6.427-2.57 8.28-1.72 1.847-4.247 2.77-7.58 2.77zM46 0.3c-3.467 0-6.607-0.773-9.42-2.32-2.82-1.553-5.02-3.68-6.6-6.38-1.587-2.7-2.38-5.733-2.38-9.1v0c0-3.367 0.793-6.4 2.38-9.1 1.58-2.7 3.78-4.827 6.6-6.38 2.813-1.547 5.953-2.32 9.42-2.32v0c3.467 0 6.593 0.767 9.38 2.3 2.78 1.533 4.97 3.657 6.57 6.37 1.6 2.72 2.4 5.763 2.4 9.13v0c0 3.367-0.8 6.407-2.4 9.12-1.6 2.72-3.79 4.847-6.57 6.38-2.787 1.533-5.913 2.3-9.38 2.3zM46-3c2.767 0 5.267-0.627 7.5-1.88 2.233-1.247 3.983-2.98 5.25-5.2 1.267-2.213 1.9-4.687 1.9-7.42v0c0-2.733-0.633-5.21-1.9-7.43-1.267-2.213-3.017-3.947-5.25-5.2-2.233-1.247-4.733-1.87-7.5-1.87v0c-2.767 0-5.273 0.623-7.52 1.87-2.253 1.253-4.023 2.987-5.31 5.2-1.28 2.22-1.92 4.697-1.92 7.43v0c0 2.733 0.64 5.207 1.92 7.42 1.287 2.22 3.057 3.953 5.31 5.2 2.247 1.253 4.753 1.88 7.52 1.88zM97.3-35h3.7v35h-3.55v-5.9c-2.3 4.133-6.217 6.2-11.75 6.2v0c-4.167 0-7.433-1.25-9.8-3.75-2.367-2.5-3.55-6.067-3.55-10.7v0-20.85h3.7v20.75c0 3.7 0.91 6.5 2.73 8.4 1.813 1.9 4.353 2.85 7.62 2.85v0c3.433 0 6.11-1.01 8.03-3.03 1.913-2.013 2.87-5.037 2.87-9.07v0zM140.35 0h-4.05l-8-11.25c-0.9 0.1-1.833 0.15-2.8 0.15v0h-9.4v11.1h-3.7v-35h13.1c4.467 0 7.967 1.067 10.5 3.2 2.533 2.133 3.8 5.067 3.8 8.8v0c0 2.733-0.693 5.043-2.08 6.93-1.38 1.88-3.353 3.237-5.92 4.07v0zM125.4-14.25c3.467 0 6.117-0.767 7.95-2.3 1.833-1.533 2.75-3.683 2.75-6.45v0c0-2.833-0.917-5.01-2.75-6.53-1.833-1.513-4.483-2.27-7.95-2.27v0h-9.3v17.55zM163.95-35.3c4.2 0 7.49 1.25 9.87 3.75 2.387 2.5 3.58 6.067 3.58 10.7v0 20.85h-3.7v-20.75c0-3.7-0.917-6.5-2.75-8.4-1.833-1.9-4.4-2.85-7.7-2.85v0c-3.467 0-6.167 1.007-8.1 3.02-1.933 2.02-2.9 5.047-2.9 9.08v0 19.9h-3.7v-35h3.55v5.9c2.233-4.133 6.183-6.2 11.85-6.2zM212.1-6.8l1.4 2.8c-1.433 1.367-3.34 2.423-5.72 3.17-2.387 0.753-5.03 1.13-7.93 1.13v0c-3.067 0-5.673-0.417-7.82-1.25-2.153-0.833-3.77-1.983-4.85-3.45-1.087-1.467-1.63-3.15-1.63-5.05v0c0-2.1 0.627-3.883 1.88-5.35 1.247-1.467 2.887-2.483 4.92-3.05v0c-1.667-0.633-2.967-1.643-3.9-3.03-0.933-1.38-1.4-3.003-1.4-4.87v0c0-1.767 0.51-3.377 1.53-4.83 1.013-1.447 2.547-2.593 4.6-3.44 2.047-0.853 4.52-1.28 7.42-1.28v0c2.133 0 4.21 0.24 6.23 0.72 2.013 0.487 3.737 1.18 5.17 2.08v0l-1.15 2.95c-3.067-1.733-6.433-2.6-10.1-2.6v0c-3.233 0-5.707 0.617-7.42 1.85-1.72 1.233-2.58 2.833-2.58 4.8v0c0 1.967 0.693 3.483 2.08 4.55 1.38 1.067 3.337 1.6 5.87 1.6v0h8.7v3.2h-8.85c-2.867 0-5.133 0.54-6.8 1.62-1.667 1.087-2.5 2.697-2.5 4.83v0c0 2.1 0.91 3.767 2.73 5 1.813 1.233 4.487 1.85 8.02 1.85v0c2.467 0 4.767-0.35 6.9-1.05 2.133-0.7 3.867-1.667 5.2-2.9zM244.3-35h3.7v24.85c0 5-1.3 8.817-3.9 11.45-2.6 2.633-6.2 3.95-10.8 3.95v0c-2.867 0-5.443-0.457-7.73-1.37-2.28-0.92-4.187-2.247-5.72-3.98v0l1.7-2.85c2.967 3.267 6.883 4.9 11.75 4.9v0c3.6 0 6.333-1 8.2-3 1.867-2 2.8-5 2.8-9v0-4.7c-2.267 3.967-6.05 5.95-11.35 5.95v0c-4.333 0-7.717-1.243-10.15-3.73-2.433-2.48-3.65-6.053-3.65-10.72v0-11.75h3.7v11.6c0 3.7 0.917 6.507 2.75 8.42 1.833 1.92 4.4 2.88 7.7 2.88v0c3.467 0 6.167-1.01 8.1-3.03 1.933-2.013 2.9-5.037 2.9-9.07v0z" fill="#000000" fill-rule="nonzero" stroke="none" stroke-width="1" stroke-linecap="butt" stroke-linejoin="miter" stroke-miterlimit="10" stroke-dasharray="" stroke-dashoffset="0" font-family="none" font-weight="none" font-size="none" text-anchor="none" style="mix-blend-mode: normal" data-fill-palette-color="primary" opacity="1"></path><path d="M30.35 36.9v-10.8h3.55v17.5h-3.25v-2.95c-1.333 1.067-2.89 1.873-4.67 2.42-1.787 0.553-3.697 0.83-5.73 0.83v0c-3.133 0-6.04-0.7-8.72-2.1-2.687-1.4-4.847-3.433-6.48-6.1-1.633-2.667-2.45-5.833-2.45-9.5v0c0-3.4 0.8-6.46 2.4-9.18 1.6-2.713 3.8-4.847 6.6-6.4 2.8-1.547 5.967-2.32 9.5-2.32v0c2.667 0 5.117 0.427 7.35 1.28 2.233 0.847 4.117 2.103 5.65 3.77v0l-2.3 2.35c-2.767-2.733-6.283-4.1-10.55-4.1v0c-2.833 0-5.39 0.623-7.67 1.87-2.287 1.253-4.08 2.997-5.38 5.23-1.3 2.233-1.95 4.733-1.95 7.5v0c0 2.967 0.657 5.54 1.97 7.72 1.32 2.187 3.073 3.857 5.26 5.01 2.18 1.147 4.52 1.72 7.02 1.72v0c1.833 0 3.61-0.31 5.33-0.93 1.713-0.613 3.22-1.553 4.52-2.82zM67.95 36.8l1.4 2.8c-1.433 1.367-3.34 2.423-5.72 3.17-2.387 0.753-5.03 1.13-7.93 1.13v0c-3.067 0-5.673-0.417-7.82-1.25-2.153-0.833-3.77-1.983-4.85-3.45-1.087-1.467-1.63-3.15-1.63-5.05v0c0-2.1 0.627-3.883 1.88-5.35 1.247-1.467 2.887-2.483 4.92-3.05v0c-1.667-0.633-2.967-1.643-3.9-3.03-0.933-1.38-1.4-3.003-1.4-4.87v0c0-1.767 0.51-3.377 1.53-4.83 1.013-1.447 2.547-2.593 4.6-3.44 2.047-0.853 4.52-1.28 7.42-1.28v0c2.133 0 4.21 0.24 6.23 0.72 2.013 0.487 3.737 1.18 5.17 2.08v0l-1.15 2.95c-3.067-1.733-6.433-2.6-10.1-2.6v0c-3.233 0-5.707 0.617-7.42 1.85-1.72 1.233-2.58 2.833-2.58 4.8v0c0 1.967 0.693 3.483 2.08 4.55 1.38 1.067 3.337 1.6 5.87 1.6v0h8.7v3.2h-8.85c-2.867 0-5.133 0.54-6.8 1.62-1.667 1.087-2.5 2.697-2.5 4.83v0c0 2.1 0.91 3.767 2.73 5 1.813 1.233 4.487 1.85 8.02 1.85v0c2.467 0 4.767-0.35 6.9-1.05 2.133-0.7 3.867-1.667 5.2-2.9zM91.45 8.3c4.2 0 7.493 1.25 9.88 3.75 2.38 2.5 3.57 6.067 3.57 10.7v0 20.85h-3.7v-20.75c0-3.7-0.917-6.5-2.75-8.4-1.833-1.9-4.4-2.85-7.7-2.85v0c-3.467 0-6.167 1.007-8.1 3.02-1.933 2.02-2.9 5.047-2.9 9.08v0 19.9h-3.7v-35h3.55v5.9c2.233-4.133 6.183-6.2 11.85-6.2zM130.35 11.8h-7.1v28.6h7.1v3.2h-17.85v-3.2h7.1v-28.6h-7.1v-3.2h17.85zM161.85 36.8l1.4 2.8c-1.433 1.367-3.34 2.423-5.72 3.17-2.387 0.753-5.03 1.13-7.93 1.13v0c-3.067 0-5.673-0.417-7.82-1.25-2.153-0.833-3.77-1.983-4.85-3.45-1.087-1.467-1.63-3.15-1.63-5.05v0c0-2.1 0.627-3.883 1.88-5.35 1.247-1.467 2.887-2.483 4.92-3.05v0c-1.667-0.633-2.967-1.643-3.9-3.03-0.933-1.38-1.4-3.003-1.4-4.87v0c0-1.767 0.51-3.377 1.53-4.83 1.013-1.447 2.547-2.593 4.6-3.44 2.047-0.853 4.52-1.28 7.42-1.28v0c2.133 0 4.21 0.24 6.23 0.72 2.013 0.487 3.737 1.18 5.17 2.08v0l-1.15 2.95c-3.067-1.733-6.433-2.6-10.1-2.6v0c-3.233 0-5.707 0.617-7.42 1.85-1.72 1.233-2.58 2.833-2.58 4.8v0c0 1.967 0.693 3.483 2.08 4.55 1.38 1.067 3.337 1.6 5.87 1.6v0h8.7v3.2h-8.85c-2.867 0-5.133 0.54-6.8 1.62-1.667 1.087-2.5 2.697-2.5 4.83v0c0 2.1 0.91 3.767 2.73 5 1.813 1.233 4.487 1.85 8.02 1.85v0c2.467 0 4.767-0.35 6.9-1.05 2.133-0.7 3.867-1.667 5.2-2.9z" fill="#0074d9" fill-rule="nonzero" stroke="none" stroke-width="1" stroke-linecap="butt" stroke-linejoin="miter" stroke-miterlimit="10" stroke-dasharray="" stroke-dashoffset="0" font-family="none" font-weight="none" font-size="none" text-anchor="none" style="mix-blend-mode: normal" data-fill-palette-color="secondary" opacity="1"></path></g></svg></g></svg></g></svg></g></svg></g></svg></g><defs></defs></svg><rect width="395.52" height="138.92988519637464" fill="none" stroke="none" visibility="hidden"></rect></g></svg></g></svg>