<svg xmlns="http://www.w3.org/2000/svg" version="1.1" xmlns:xlink="http://www.w3.org/1999/xlink" xmlns:svgjs="http://svgjs.dev/svgjs" width="1000" height="227" viewBox="0 0 1000 227"><g transform="matrix(1,0,0,1,-0.6060604914785586,-0.06930855855871698)"><svg viewBox="0 0 396 90" data-background-color="#ffffff" preserveAspectRatio="xMidYMid meet" height="227" width="1000" xmlns="http://www.w3.org/2000/svg" xmlns:xlink="http://www.w3.org/1999/xlink"><g id="tight-bounds" transform="matrix(1,0,0,1,0.2400000453744724,0.02747916418627483)"><svg viewBox="0 0 395.52 89.94504167162742" height="89.94504167162742" width="395.52"><g><svg viewBox="0 0 539.0437019513705 122.5837081180328" height="89.94504167162742" width="395.52"><g transform="matrix(1,0,0,1,0,16.941742583606562)"><svg viewBox="0 0 395.52000000000004 88.70022295081968" height="88.70022295081968" width="395.52000000000004"><g id="textblocktransform"><svg viewBox="0 0 395.52000000000004 88.70022295081968" height="88.70022295081968" width="395.52000000000004" id="textblock"><g><svg viewBox="0 0 395.52000000000004 88.70022295081968" height="88.70022295081968" width="395.52000000000004"><g transform="matrix(1,0,0,1,0,0)"><svg width="395.52000000000004" viewBox="2.200000047683716 -33.599998474121094 152.49000549316406 34.19999694824219" height="88.70022295081968" data-palette-color="#111111"><path d="M10 0.6L10 0.6Q7.35 0.6 5.38-0.63 3.4-1.85 2.2-4.1L2.2-4.1 3.5-4.9Q4.8-2.7 6.35-1.8 7.9-0.9 10.1-0.9L10.1-0.9Q13.25-0.9 14.78-2.83 16.3-4.75 16.3-8.9L16.3-8.9 16.3-33 17.9-33 17.9-8.7Q17.9-6.75 17.48-5.05 17.05-3.35 16.13-2.1 15.2-0.85 13.68-0.13 12.15 0.6 10 0.6ZM49.5 0.6L49.5 0.6Q46.34 0.6 43.77-0.63 41.2-1.85 39.4-4.1 37.59-6.35 36.59-9.53 35.59-12.7 35.59-16.6L35.59-16.6Q35.59-20.5 36.62-23.65 37.65-26.8 39.52-29 41.4-31.2 44.07-32.4 46.75-33.6 50-33.6L50-33.6Q51.65-33.6 53-33.25 54.34-32.9 55.42-32.33 56.5-31.75 57.32-31.05 58.15-30.35 58.8-29.7L58.8-29.7 57.8-28.6Q56.5-30.05 54.65-31.08 52.8-32.1 50-32.1L50-32.1Q47.05-32.1 44.7-31.03 42.34-29.95 40.7-27.93 39.05-25.9 38.17-23.03 37.3-20.15 37.3-16.6L37.3-16.6Q37.3-13.05 38.15-10.15 39-7.25 40.57-5.2 42.15-3.15 44.42-2.02 46.7-0.9 49.59-0.9L49.59-0.9Q52-0.9 54.09-1.6 56.2-2.3 57.5-3.6L57.5-3.6 57.5-14.5 49.3-14.5 49.3-15.9 59.09-15.9 59.09-3.1Q57.59-1.45 55.17-0.43 52.75 0.6 49.5 0.6ZM85.99 0L67.79 0 67.79-33 85.49-33 85.49-31.6 69.39-31.6 69.39-18.3 82.89-18.3 82.89-16.9 69.39-16.9 69.39-1.4 85.99-1.4 85.99 0ZM94.79 0L93.29 0 93.29-33 94.99-33 109.59-8.8 113.39-2.3 113.59-2.3Q113.49-4.7 113.44-6.98 113.39-9.25 113.39-11.6L113.39-11.6 113.39-33 114.89-33 114.89 0 113.19 0 98.59-24.2 94.79-30.7 94.59-30.7Q94.69-28.35 94.74-26.2 94.79-24.05 94.79-21.7L94.79-21.7 94.79 0ZM126.49 0L124.89 0 124.89-33 126.49-33 126.49 0ZM154.69 0L136.49 0 136.49-33 154.19-33 154.19-31.6 138.09-31.6 138.09-18.3 151.59-18.3 151.59-16.9 138.09-16.9 138.09-1.4 154.69-1.4 154.69 0Z" opacity="1" transform="matrix(1,0,0,1,0,0)" fill="#111111" class="wordmark-text-0" data-fill-palette-color="primary" id="text-0"></path></svg></g></svg></g></svg></g></svg></g><g transform="matrix(1,0,0,1,416.45999383333776,0)"><svg viewBox="0 0 122.5837081180328 122.5837081180328" height="122.5837081180328" width="122.5837081180328"><g data-palette-color="#0074d9"><rect width="33.5062135522623" height="122.5837081180328" fill="#0074d9" stroke="transparent" data-fill-palette-color="accent" x="0" fill-opacity="1"></rect><rect width="33.5062135522623" height="122.5837081180328" fill="#0074d9" stroke="transparent" data-fill-palette-color="accent" x="40.86123603934427" fill-opacity="0.75"></rect><rect width="33.5062135522623" height="122.5837081180328" fill="#0074d9" stroke="transparent" data-fill-palette-color="accent" x="81.72247207868854" fill-opacity="0.5"></rect></g></svg></g></svg></g><defs></defs></svg><rect width="395.52" height="89.94504167162742" fill="none" stroke="none" visibility="hidden"></rect></g></svg></g></svg>